<?xml version="1.0" encoding="UTF-8" standalone="no"?>
<!-- Created with Inkscape (http://www.inkscape.org/) -->

<svg
   xmlns:dc="http://purl.org/dc/elements/1.1/"
   xmlns:cc="http://creativecommons.org/ns#"
   xmlns:rdf="http://www.w3.org/1999/02/22-rdf-syntax-ns#"
   xmlns:svg="http://www.w3.org/2000/svg"
   xmlns="http://www.w3.org/2000/svg"
   xmlns:sodipodi="http://sodipodi.sourceforge.net/DTD/sodipodi-0.dtd"
   xmlns:inkscape="http://www.inkscape.org/namespaces/inkscape"
   width="744.09448819"
   height="1052.3622047"
   id="svg3206"
   version="1.1"
   inkscape:version="0.48.3.1 r9886"
   sodipodi:docname="drawing-2.svg">
  <defs
     id="defs3208" />
  <sodipodi:namedview
     id="base"
     pagecolor="#ffffff"
     bordercolor="#666666"
     borderopacity="1.0"
     inkscape:pageopacity="0.0"
     inkscape:pageshadow="2"
     inkscape:zoom="0.35"
     inkscape:cx="375"
     inkscape:cy="661.63563"
     inkscape:document-units="px"
     inkscape:current-layer="layer1"
     showgrid="false"
     inkscape:window-width="1366"
     inkscape:window-height="681"
     inkscape:window-x="0"
     inkscape:window-y="0"
     inkscape:window-maximized="1" />
  <metadata
     id="metadata3211">
    <rdf:RDF>
      <cc:Work
         rdf:about="">
        <dc:format>image/svg+xml</dc:format>
        <dc:type
           rdf:resource="http://purl.org/dc/dcmitype/StillImage" />
        <dc:title></dc:title>
      </cc:Work>
    </rdf:RDF>
  </metadata>
  <g
     inkscape:label="Layer 1"
     inkscape:groupmode="layer"
     id="layer1">
    <path
       style="fill:#000000;fill-opacity:1"
       d="m 151.79629,717.29595 -12.47103,-6.15699 -8.60163,0.63225 c -5.65359,0.41556 -8.87375,0.23036 -9.39558,-0.54033 -0.5431,-0.80213 -0.79917,-0.75104 -0.81049,0.16167 -0.0122,0.98208 -1.69749,1.15856 -6.38532,0.6686 -4.94177,-0.51652 -6.93271,-0.2707 -8.88565,1.09723 -5.19093,3.63586 -10.28638,1.09803 -12.73352,-6.34201 -3.20804,-9.75344 -5.68161,-13.44197 -9.49392,-14.15719 -1.98715,-0.37279 -4.90771,-0.43029 -6.49014,-0.12779 -3.08895,0.59051 -4.57516,-0.42266 -6.81936,-4.64871 -0.78255,-1.47363 -2.31823,-3.31476 -3.41262,-4.09141 -1.09439,-0.77665 -1.9898,-2.40914 -1.9898,-3.62774 0,-1.45285 -0.51973,-2.01621 -1.50965,-1.63633 -1.88118,0.72187 -2.90751,-3.81812 -1.76288,-7.79814 0.92648,-3.22152 7.3999,-10.92097 9.18194,-10.92097 0.65403,0 1.98803,-1.35244 2.96445,-3.00534 2.879,-4.8738 19.02228,-20.73014 29.21549,-28.69622 5.19867,-4.06282 10.75728,-9.20267 12.35246,-11.42182 3.72481,-5.1819 10.43993,-10.0351 12.69021,-9.17159 0.94801,0.36376 2.81405,-0.0447 4.14677,-0.90742 3.88971,-2.5184 8.01634,-3.11076 12.9743,-1.86231 6.11912,1.54079 9.67537,0.12178 13.48124,-5.37938 1.6411,-2.37206 3.59168,-4.33135 4.33463,-4.35389 0.74295,-0.0226 1.35081,-0.45861 1.35081,-0.96894 0,-1.39178 11.87587,-5.49249 13.7849,-4.75993 0.9112,0.34966 2.19428,-0.098 2.85128,-0.99473 0.65699,-0.89676 2.68297,-2.39956 4.50218,-3.33955 4.31683,-2.2305 10.20048,-8.28648 10.20048,-10.49922 0,-0.95702 0.56795,-2.30796 1.26209,-3.00214 2.04213,-2.04213 -0.82232,-9.53687 -5.39105,-14.10563 -6.35148,-6.35144 -8.30059,-9.68752 -13.05645,-22.34695 -2.45615,-6.5379 -6.08737,-14.31861 -8.0694,-17.29039 -1.98202,-2.97178 -4.21407,-6.96756 -4.96012,-8.87952 -0.74604,-1.91195 -2.03355,-4.03824 -2.86115,-4.72509 -1.06967,-0.88773 -1.50471,-3.90183 -1.50471,-10.42501 0,-10.40594 -2.47052,-16.57377 -7.46797,-18.64436 -1.53901,-0.63762 -4.01393,-1.86656 -5.49982,-2.73089 -1.4859,-0.86433 -3.83052,-1.57869 -5.21028,-1.58745 -1.37976,-0.009 -3.2546,-0.76188 -4.16631,-1.6736 -0.91171,-0.91171 -2.48998,-1.39349 -3.50727,-1.07061 -2.29242,0.72759 -5.88088,-2.92819 -8.10921,-8.26137 -0.9045,-2.16477 -3.34093,-5.33421 -5.41429,-7.04326 -4.57568,-3.77165 -9.25408,-15.25644 -9.25408,-22.71734 0,-2.77172 0.99468,-8.58438 2.21042,-12.91699 1.21573,-4.33262 2.20212,-10.68546 2.19198,-14.11738 -0.0102,-3.43193 0.0102,-13.77744 0.0452,-22.98994 0.0605,-15.89948 -0.0665,-16.94177 -2.50014,-20.52488 -1.41011,-2.07615 -3.33234,-3.92279 -4.27162,-4.1037 -0.93929,-0.1809 -4.81253,1.49265 -8.60719,3.71898 -6.39495,3.75187 -13.4368,5.73076 -21.92565,6.16151 -2.90173,0.14725 -3.29757,-0.31326 -5.23502,-6.09009 -2.21485,-6.60399 -1.97224,-9.42002 0.81158,-9.42002 2.64419,0 11.94426,-5.0468 16.22305,-8.80363 2.13255,-1.87239 4.64768,-4.91264 5.58919,-6.75608 0.9415,-1.84343 3.22655,-4.69045 5.07788,-6.32673 1.85133,-1.63633 4.33865,-3.87251 5.52736,-4.96933 4.27778,-3.94709 17.43876,-11.27732 24.77406,-13.79826 12.55535,-4.315 18.5775,-3.45374 22.29329,3.18819 1.38648,2.4783 4.07049,6.69433 5.96446,9.36893 1.89399,2.67461 4.54331,7.05122 5.88739,9.72587 2.81493,5.60144 10.12084,15.31506 14.9675,19.90009 6.57243,6.2176 6.80451,12.50892 1.21922,33.05173 -1.69677,6.24073 -3.42585,13.52873 -3.84241,16.19547 -0.41656,2.66675 -1.40054,6.67152 -2.1866,8.89949 -1.17948,3.34298 -1.18279,4.95063 -0.0189,9.19981 3.25391,11.88025 4.20089,17.35928 4.38647,25.37921 0.16973,7.33511 0.51013,8.69477 2.53105,10.1103 1.28422,0.89947 2.73388,3.17496 3.22146,5.0566 0.76851,2.96577 1.3823,3.43961 4.61111,3.55958 4.09925,0.15231 17.49499,6.10224 21.20587,9.41893 1.2937,1.15626 3.43848,4.84724 4.76618,8.20215 1.32771,3.35491 3.00998,6.82929 3.73837,7.72081 0.7284,0.89157 2.65803,4.28122 4.28808,7.5326 1.63004,3.25138 5.83455,8.90124 9.34333,12.55531 7.36519,7.67004 8.81749,11.28152 6.84455,17.02046 -0.75296,2.1902 -1.71014,6.77251 -2.12709,10.18298 -0.50471,4.1284 -2.17107,8.7735 -4.98583,13.8984 -7.43301,13.53351 -5.29652,20.34515 8.58694,27.3773 4.54189,2.30051 9.10424,5.19721 10.13854,6.43713 1.03431,1.23987 3.15626,2.2543 4.71547,2.2543 2.72274,0 2.80766,0.18172 2.14643,4.59279 -0.65021,4.33749 -0.32496,5.10322 5.85259,13.77825 10.01325,14.0615 11.65387,16.72192 12.05263,19.54451 0.26022,1.84194 1.79807,3.32229 5.23149,5.03595 7.04059,3.51396 8.6452,5.91705 8.6452,12.94708 0,5.13135 -0.5361,6.67955 -3.89968,11.26164 -2.14482,2.92182 -5.54887,6.57034 -7.56454,8.10774 -2.01569,1.53745 -3.66488,3.36426 -3.66488,4.05956 0,0.69535 -0.96373,3.15454 -2.14164,5.46494 -1.17791,2.3104 -2.63576,6.87365 -3.23969,10.14057 -1.86303,10.07806 -6.14827,14.65974 -20.78059,22.21817 -9.99718,5.16412 -10.45277,5.28667 -17.28144,4.649 -3.85746,-0.36023 -10.06363,-1.71045 -13.79149,-3.00057 -4.29761,-1.48731 -7.02795,-1.94723 -7.46118,-1.25695 -0.3758,0.59882 -3.19303,1.08666 -6.26051,1.08408 -4.78859,-0.005 -6.01105,0.45157 -8.6452,3.22173 -1.68738,1.7745 -5.74257,4.32078 -9.01153,5.65835 -3.26897,1.33753 -9.13277,4.31839 -13.03066,6.62414 -3.8979,2.3057 -7.78823,4.16666 -8.6452,4.13544 -0.85696,-0.0312 -7.17008,-2.82741 -14.02914,-6.21371 l -6e-5,0 z M 134.54946,607.93691 c 0,-0.59439 -0.4863,-1.08065 -1.08065,-1.08065 -0.59436,0 -1.08065,0.48626 -1.08065,1.08065 0,0.59435 0.48629,1.08065 1.08065,1.08065 0.59435,0 1.08065,-0.4863 1.08065,-1.08065 z"
       id="path3127"
       inkscape:connector-curvature="0" />
    <path
       style="fill:#000000;fill-opacity:1"
       d="m 58.90398,508.99079 c -4.45768,-1.37655 -9.40846,-2.53254 -11.00173,-2.5689 -3.58265,-0.0817 -10.06106,-4.14349 -11.51513,-7.21961 -2.52233,-5.33607 -2.6072,-11.81227 -0.2273,-17.34446 1.96008,-4.55634 2.11418,-5.84378 1.02156,-8.53478 -0.7077,-1.74293 -1.41126,-4.964 -1.56347,-7.15795 -0.15221,-2.19391 -1.05377,-5.09829 -2.00346,-6.45416 -2.35786,-3.36634 -2.20458,-7.01056 0.32266,-7.67144 1.12715,-0.29474 5.61274,0.30141 9.96798,1.32483 l 7.91861,1.86078 7.05225,-3.25165 c 3.87874,-1.78842 8.39549,-4.83703 10.03722,-6.77469 1.64173,-1.93765 4.67511,-4.08079 6.74085,-4.76254 3.28474,-1.08408 4.66779,-0.87476 11.02556,1.66876 9.60579,3.84293 11.86811,5.43454 12.68498,8.92441 0.37527,1.60322 1.9289,6.98821 3.45252,11.96671 l 2.77021,9.05179 -3.07947,6.07731 c -2.59676,5.12467 -3.08889,7.43245 -3.13956,14.72252 -0.0959,13.80128 0.18036,13.46346 -13.78666,16.85879 -10.64866,2.58865 -16.48425,2.43209 -26.67762,-0.71572 z M 34.58936,454.48463 c 0.36733,-0.59435 0.15289,-1.08065 -0.47655,-1.08065 -0.62943,0 -1.14442,0.4863 -1.14442,1.08065 0,0.59434 0.21444,1.08064 0.47654,1.08064 0.2621,0 0.7771,-0.4863 1.14443,-1.08064 z"
       id="path3129"
       inkscape:connector-curvature="0" />
    <path
       style="fill:#000000;fill-opacity:1"
       d="m 391.74409,503.90989 c -8.28679,-2.59655 -12.24443,-2.76761 -17.02023,-0.73577 -2.94853,1.25446 -4.0757,1.26246 -7.02423,0.0499 -1.93166,-0.79441 -4.9562,-1.50891 -6.7212,-1.58773 -2.26145,-0.10104 -3.60566,-0.94116 -4.55204,-2.84498 -0.73862,-1.48591 -5.54528,-6.68656 -10.68146,-11.55706 l -9.3385,-8.85544 1.97522,-5.19301 c 1.08638,-2.85615 4.0063,-8.16646 6.48872,-11.80066 2.48243,-3.6342 4.68343,-7.47238 4.89111,-8.52936 0.72334,-3.68135 3.36585,-4.15866 8.82268,-1.59364 4.87883,2.29333 5.23594,2.32038 7.19706,0.54556 1.13493,-1.02707 2.69952,-1.64924 3.47686,-1.38256 0.77734,0.26673 2.79858,0.0937 4.49166,-0.38453 2.17222,-0.6135 4.71691,-0.24663 8.6452,1.24646 3.06178,1.16372 7.31511,2.11608 9.45183,2.1164 4.04068,0 7.46188,2.56425 7.46188,5.59155 0,2.3959 3.01054,4.74086 10.29546,8.01925 9.89598,4.45344 10.23688,4.92597 10.23688,14.18925 0,7.08301 -0.36371,8.53703 -3.13403,12.53015 -4.0868,5.89053 -8.55163,10.04309 -12.33556,11.47277 -3.77238,1.42529 -4.0228,1.39959 -12.62731,-1.29652 z"
       id="path3131"
       inkscape:connector-curvature="0" />
    <path
       style="fill:#000000;fill-opacity:1"
       d="m 455.89278,640.43364 c -2.02235,-2.12276 -4.94381,-5.19685 -6.4921,-6.83133 -1.54834,-1.63447 -3.89677,-2.97178 -5.21876,-2.97178 -3.80978,0 -11.40823,-6.18191 -13.38468,-10.88948 -0.97391,-2.31971 -2.37861,-4.22259 -3.12157,-4.22859 -2.28664,-0.0185 -1.56125,-9.12831 1.34079,-16.83838 3.55889,-9.45516 7.97444,-14.80162 17.22611,-20.85783 7.36253,-4.81959 8.02978,-5.03189 18.44539,-5.86871 5.94356,-0.47749 13.23797,-0.98172 16.20974,-1.12048 2.9718,-0.13877 6.61901,-0.81239 8.10487,-1.49698 24.19512,-11.14705 25.77752,-11.07013 31.43009,1.52801 2.10804,4.69826 3.96773,7.18763 6.25198,8.36887 1.78828,0.92472 3.99208,2.73879 4.89737,4.03124 1.52783,2.18126 1.41622,2.66218 -1.55538,6.70295 -2.56276,3.48478 -3.20129,5.45496 -3.20129,9.87723 0,3.18042 -0.67244,6.41409 -1.58488,7.6218 -1.00665,1.33243 -1.36282,3.34814 -0.97621,5.52538 0.54836,3.08841 0.17043,3.71762 -3.8184,6.35731 -3.76722,2.49302 -4.42702,3.48789 -4.42702,6.67509 0,2.75505 -0.84396,4.5338 -3.19162,6.72685 -3.55194,3.318 -8.58397,4.36965 -20.90873,4.36965 -6.19647,0 -8.45684,0.50861 -12.31896,2.77195 -3.16822,1.85671 -7.25593,3.04188 -12.37987,3.58938 l -7.64986,0.81735 -3.67701,-3.8595 0,0 z"
       id="path3133"
       inkscape:connector-curvature="0" />
    <path
       style="fill:#000000;fill-opacity:1"
       d="m 411.5078,808.13622 c -6.94285,-0.33151 -8.04134,-0.68799 -10.07105,-3.26837 -2.58919,-3.29162 -2.29229,-7.29219 1.11809,-15.06554 2.17643,-4.96084 11.39386,-14.31704 14.13351,-14.3464 0.94062,-0.01 3.27342,1.92687 5.18398,4.3043 3.188,3.96705 3.90313,4.32263 8.69377,4.32263 3.39263,0 5.70578,-0.58536 6.60774,-1.67215 2.04146,-2.45978 3.16289,-0.0631 3.18295,6.8021 0.0144,4.9935 -0.44326,6.17926 -3.83584,9.93442 -4.43172,4.90537 -12.3707,9.89001 -15.25142,9.57586 -1.08286,-0.11812 -5.47564,-0.38219 -9.76173,-0.58685 l 0,0 z"
       id="path3135"
       inkscape:connector-curvature="0" />
    <path
       style="fill:#000000;fill-opacity:1"
       d="m 599.56998,820.43984 c -4.22615,-2.16508 -4.43335,-2.47978 -3.16909,-4.81313 2.82859,-5.22043 6.44725,-6.45759 17.64914,-6.03394 9.93179,0.37563 13.27573,1.41508 13.27573,4.12677 0,1.55877 -10.27053,5.40288 -11.84136,4.43204 -0.61955,-0.38291 -1.12645,-0.23398 -1.12645,0.33091 0,0.98719 -7.85605,4.62505 -9.47757,4.38885 -0.43372,-0.0633 -2.82344,-1.15743 -5.3104,-2.4315 l 0,0 z"
       id="path3137"
       inkscape:connector-curvature="0" />
    <path
       style="fill:#000000;fill-opacity:1"
       d="m 623.30829,721.03471 c -2.5068,-0.70876 -5.07408,-1.80495 -5.70506,-2.43593 -2.10582,-2.10587 1.61488,-6.81127 9.85808,-12.46696 4.38312,-3.0073 8.84099,-6.24432 9.90637,-7.19343 1.34678,-1.1998 4.14583,-1.74437 9.18554,-1.7871 8.86831,-0.0753 13.64124,-2.84007 14.70667,-8.51924 0.9281,-4.94734 3.93516,-7.36592 14.6951,-11.81936 8.04545,-3.32998 10.35292,-3.80752 18.59116,-3.84758 8.26335,-0.0402 9.48357,0.19983 10.04738,1.97623 0.63568,2.00284 -1.39896,6.47972 -2.94481,6.47972 -0.44149,0 -3.34895,2.30991 -6.46112,5.13312 -13.99357,12.6943 -20.29482,19.10788 -23.03949,23.45007 -3.82016,6.0436 -9.48818,9.23961 -16.38631,9.23961 -2.9206,0 -5.89563,0.58545 -6.61122,1.30103 -1.77373,1.77373 -20.07453,2.12064 -25.84229,0.48982 l 0,0 z"
       id="path3139"
       inkscape:connector-curvature="0" />
    <path
       style="fill:#000000;fill-opacity:1"
       d="m 338.44392,276.89802 c -1.22801,-1.22799 -0.72528,-10.39221 0.80538,-14.68087 1.98919,-5.57348 4.96458,-9.88302 6.05535,-8.77057 1.33579,1.36242 3.1162,15.98954 1.99806,16.41536 -0.52025,0.19812 -0.94591,0.95616 -0.94591,1.68457 0,3.14401 -6.03731,7.22711 -7.91288,5.35151 z"
       id="path3141"
       inkscape:connector-curvature="0" />
    <path
       style="fill:#000000;fill-opacity:1"
       d="m 483.30734,347.75003 c -1.0521,-0.6125 -2.84611,-0.81748 -3.98661,-0.45553 -2.42784,0.7706 -3.80209,-1.28116 -4.94747,-7.38656 -1.04374,-5.56372 1.00029,-9.34951 5.04806,-9.34951 1.97181,0 3.44697,-0.7954 4.24677,-2.2898 1.05643,-1.97398 1.91724,-2.21184 6.24041,-1.72455 4.29585,0.48418 5.6364,1.27867 9.34892,5.54051 2.38367,2.73644 4.94178,4.97136 5.68474,4.96653 0.74295,-0.005 1.35081,0.62108 1.35081,1.39092 0,1.71686 -12.60338,8.32713 -15.87581,8.32654 -1.3022,-2.2e-4 -2.66823,0.48589 -3.03556,1.08024 -0.82837,1.34038 -1.63592,1.32077 -4.07426,-0.0988 l 0,0 z"
       id="path3143"
       inkscape:connector-curvature="0" />
  </g>
</svg>
