<?xml version="1.0" encoding="UTF-8" standalone="no"?>
<!-- Created with Inkscape (http://www.inkscape.org/) -->

<svg
   xmlns:dc="http://purl.org/dc/elements/1.1/"
   xmlns:cc="http://creativecommons.org/ns#"
   xmlns:rdf="http://www.w3.org/1999/02/22-rdf-syntax-ns#"
   xmlns:svg="http://www.w3.org/2000/svg"
   xmlns="http://www.w3.org/2000/svg"
   xmlns:sodipodi="http://sodipodi.sourceforge.net/DTD/sodipodi-0.dtd"
   xmlns:inkscape="http://www.inkscape.org/namespaces/inkscape"
   width="1489.426"
   height="1261.0403"
   id="svg3034"
   version="1.1"
   inkscape:version="0.48.3.1 r9886"
   sodipodi:docname="New document 3">
  <defs
     id="defs3036" />
  <sodipodi:namedview
     id="base"
     pagecolor="#ffffff"
     bordercolor="#666666"
     borderopacity="1.0"
     inkscape:pageopacity="0.0"
     inkscape:pageshadow="2"
     inkscape:zoom="0.35"
     inkscape:cx="768.95077"
     inkscape:cy="988.95593"
     inkscape:document-units="px"
     inkscape:current-layer="layer1"
     showgrid="false"
     fit-margin-top="0"
     fit-margin-left="0"
     fit-margin-right="0"
     fit-margin-bottom="0"
     inkscape:window-width="683"
     inkscape:window-height="681"
     inkscape:window-x="0"
     inkscape:window-y="0"
     inkscape:window-maximized="1" />
  <metadata
     id="metadata3039">
    <rdf:RDF>
      <cc:Work
         rdf:about="">
        <dc:format>image/svg+xml</dc:format>
        <dc:type
           rdf:resource="http://purl.org/dc/dcmitype/StillImage" />
        <dc:title></dc:title>
      </cc:Work>
    </rdf:RDF>
  </metadata>
  <g
     inkscape:label="Layer 1"
     inkscape:groupmode="layer"
     id="layer1"
     transform="translate(753.28443,358.15794)">
    <path
       style="fill:#000000;fill-opacity:1"
       d="m -487.93837,669.12896 -27.60912,-13.6307 -19.04281,1.3997 c -12.51625,0.92 -19.64523,0.51 -20.80049,-1.1962 -1.20235,-1.7758 -1.76924,-1.6627 -1.7943,0.3579 -0.027,2.1742 -3.75801,2.5649 -14.13621,1.4802 -10.94039,-1.1435 -15.34805,-0.5993 -19.67158,2.4291 -11.49199,8.0493 -22.77261,2.4309 -28.19022,-14.0403 -7.10215,-21.59275 -12.5783,-29.75865 -21.01822,-31.34205 -4.39925,-0.8253 -10.86497,-0.9526 -14.36825,-0.2829 -6.8385,1.3073 -10.12877,-0.9357 -15.0971,-10.2916 -1.73246,-3.2624 -5.13224,-7.3384 -7.55507,-9.0578 -2.42282,-1.7194 -4.40514,-5.3335 -4.40514,-8.0313 0,-3.2164 -1.1506,-4.4636 -3.34214,-3.6226 -4.16467,1.5981 -6.43683,-8.4528 -3.90278,-17.264 2.05111,-7.132 16.38235,-24.1775 20.32754,-24.1775 1.44792,0 4.40121,-2.9941 6.56286,-6.6534 6.37371,-10.7899 42.11266,-45.8936 64.67899,-63.5294 11.50913,-8.9945 23.81511,-20.3734 27.34662,-25.2863 8.2462,-11.472 23.11253,-22.2163 28.09435,-20.3046 2.09875,0.8053 6.22991,-0.099 9.18035,-2.0089 8.61129,-5.5754 17.74707,-6.8868 28.72329,-4.1229 13.54687,3.4111 21.4199,0.2696 29.84557,-11.9092 3.63316,-5.2514 7.95148,-9.589 9.59626,-9.6389 1.64478,-0.05 2.99051,-1.0153 2.99051,-2.1451 0,-3.0812 26.2915,-12.1596 30.51783,-10.5378 2.01727,0.7741 4.85782,-0.217 6.31234,-2.2022 1.45448,-1.9853 5.93972,-5.3123 9.96719,-7.3933 9.55685,-4.938 22.58243,-18.3451 22.58243,-23.2438 0,-2.1187 1.25736,-5.1095 2.79409,-6.6463 4.52098,-4.521 -1.8205,-21.1133 -11.93504,-31.2279 -14.06128,-14.0612 -18.37634,-21.4468 -28.90513,-49.473 -5.43758,-14.474 -13.4766,-31.6994 -17.86453,-38.2785 -4.38792,-6.5791 -9.32936,-15.4252 -10.981,-19.658 -1.65163,-4.2328 -4.50201,-8.9401 -6.33418,-10.4607 -2.3681,-1.9653 -3.33122,-8.6381 -3.33122,-23.0795 0,-23.0373 -5.46938,-36.692 -16.53304,-41.276 -3.40715,-1.4116 -8.88628,-4.1323 -12.17584,-6.0458 -3.28956,-1.9135 -8.48023,-3.495 -11.53482,-3.5144 -3.05459,-0.019 -7.20522,-1.6867 -9.22362,-3.7051 -2.0184,-2.0184 -5.51248,-3.085 -7.76462,-2.3702 -5.07508,1.6108 -13.01944,-6.4826 -17.95265,-18.289504 -2.00242,-4.7925 -7.39633,-11.8092 -11.98647,-15.5928 -10.12991,-8.3499 -20.48724,-33.7756 -20.48724,-50.293 0,-6.1362 2.2021,-19.0046 4.89357,-28.5964004 2.69146,-9.5918 4.87519,-23.6560996 4.85273,-31.2538996 -0.0225,-7.5978 0.0226,-30.5013 0.10014,-50.8965 0.13383,-35.199196 -0.14725,-37.506696 -5.53496,-45.439196 -3.12178,-4.5963 -7.37733,-8.6845 -9.45677,-9.085 -2.07945,-0.4005 -10.65426,3.3045 -19.05512,8.2333 -14.15751,8.3061 -29.74717,12.6871 -48.54029,13.6407 -6.42404,0.326 -7.30037,-0.6935 -11.58961,-13.4826 -4.90337,-14.6203 -4.36625,-20.8546 1.79672,-20.8546 5.85387,0 26.44293,-11.1729 35.91555,-19.49 4.72118,-4.1452 10.28933,-10.8759 12.37369,-14.957 2.08435,-4.0811 7.14312,-10.384 11.24172,-14.0065 4.09859,-3.6226 9.60515,-8.5732 12.2368,-11.0014 9.4704,-8.7383 38.60696,-24.9664 54.84628,-30.5474 27.79578,-9.5528 41.12798,-7.6461 49.35422,7.0582 3.06946,5.4866 9.01148,14.8203 13.20448,20.7415 4.19302,5.9212 10.05824,15.6104 13.03384,21.5317 6.23186,12.4008 22.40613,33.9054 33.13596,44.056 14.55042,13.7649 15.06422,27.693 2.69918,73.171896 -3.75641,13.8161 -7.58436,29.9507 -8.50656,35.8545 -0.92222,5.9038 -3.10061,14.7698 -4.84084,19.7022 -2.6112,7.4008996 -2.61852,10.9599996 -0.0419,20.3670996 7.2037,26.3012004 9.30019,38.4310004 9.71104,56.1860004 0.37575,16.2389 1.12934,19.249 5.60338,22.3828 2.84308,1.9913 6.05243,7.0289 7.13186,11.1946 1.70138,6.565804 3.06022,7.614804 10.20835,7.880404 9.07516,0.3372 38.73146,13.5095 46.94682,20.8522 2.86407,2.5598 7.6123,10.7311 10.55166,18.1584 2.93936,7.4273 6.66366,15.1191 8.27622,17.0928 1.61258,1.9738 5.88451,9.478 9.49321,16.6761 3.60868,7.1981 12.91687,19.7061 20.68482,27.7957 16.3055,16.9804 19.52068,24.9757 15.15286,37.6809 -1.66693,4.8488 -3.78601,14.9934 -4.70907,22.5437 -1.11735,9.1397 -4.80644,19.4233 -11.03792,30.7691 -16.45564,29.9613 -11.72576,45.0413 19.01028,60.6095 10.05509,5.093 20.1555,11.5059 22.4453,14.2509 2.28982,2.7449 6.98752,4.9907 10.43938,4.9907 6.02777,0 6.21576,0.4023 4.7519,10.1678 -1.43947,9.6026 -0.71942,11.2978 12.95682,30.5031 22.16792,31.1302 25.80002,37.02 26.68282,43.2688 0.57609,4.0778 3.98068,7.3551 11.58178,11.1489 15.58689,7.7794 19.13926,13.0995 19.13926,28.663 0,11.3601 -1.18685,14.7876 -8.63334,24.9317 -4.74833,6.4685 -12.28441,14.5458 -16.74684,17.9494 -4.46244,3.4037 -8.11352,7.448 -8.11352,8.9873 0,1.5394 -2.13357,6.9837 -4.74129,12.0986 -2.60772,5.1149 -5.8352,15.2173 -7.17222,22.4498 -4.12449,22.3114 -13.61141,32.4546 -46.00531,49.1879 -22.13235,11.43265 -23.14096,11.70395 -38.25868,10.29225 -8.53988,-0.7975 -22.27947,-3.7867 -30.53242,-6.64285 -9.51431,-3.2927 -15.55889,-4.3109 -16.51801,-2.7827 -0.83196,1.3257 -7.06892,2.4057 -13.85988,2.4 -10.60128,-0.01 -13.30762,0.9997 -19.13926,7.13245 -3.73562,3.9285 -12.71324,9.5656 -19.95027,12.5268 -7.23703,2.9611 -20.21866,9.5603 -28.84805,14.6649 -8.62939,5.1045 -17.24205,9.2244 -19.13925,9.1553 -1.8972,-0.069 -15.87355,-6.2595 -31.05856,-13.7563 l -1.2e-4,0 z m -38.18207,-242.10555 c 0,-1.3159 -1.07659,-2.3924 -2.39241,-2.3924 -1.31582,0 -2.39241,1.0765 -2.39241,2.3924 0,1.3158 1.07659,2.3924 2.39241,2.3924 1.31582,0 2.39241,-1.0766 2.39241,-2.3924 z"
       id="path3127"
       inkscape:connector-curvature="0" />
    <path
       style="fill:#000000;fill-opacity:1"
       d="m -693.58891,207.97061 c -9.86868,-3.0475 -20.829,-5.6067 -24.35628,-5.6872 -7.93148,-0.1809 -22.27377,-9.1731 -25.49289,-15.9832 -5.58407,-11.8133 -5.77196,-26.1507 -0.5032,-38.3982 4.33934,-10.0871 4.6805,-12.9373 2.26159,-18.8948 -1.56675,-3.8586 -3.12434,-10.9896 -3.46131,-15.8467 -0.33697,-4.857 -2.3329,-11.2869 -4.43538,-14.288604 -5.21997,-7.4526 -4.88063,-15.5204 0.71432,-16.9835 2.49536,-0.6525 12.42583,0.6673 22.06771,2.933 l 17.53069,4.1195 15.6127,-7.1987 c 8.58698,-3.9593 18.58643,-10.7085 22.22099,-14.9982 3.63456,-4.2897 10.35005,-9.0343 14.9233,-10.5436 7.27196,-2.4 10.33383,-1.9366 24.40903,3.6944 21.26587,8.5077 26.27433,12.0313 28.08278,19.7574 0.83079,3.5493 4.2703,15.4709 7.64338,26.492604 l 6.13286,20.0394 -6.81752,13.4543 c -5.74886,11.3453 -6.83837,16.4544 -6.95053,32.5936 -0.21233,30.5541 0.39928,29.8062 -30.52173,37.323 -23.57464,5.7309 -36.49381,5.3843 -59.06051,-1.5845 z M -747.41806,87.301606 c 0.81322,-1.3158 0.33847,-2.3924 -1.05501,-2.3924 -1.39348,0 -2.5336,1.0766 -2.5336,2.3924 0,1.3158 0.47475,2.3924 1.05501,2.3924 0.58025,0 1.72037,-1.0766 2.5336,-2.3924 z"
       id="path3129"
       inkscape:connector-curvature="0" />
    <path
       style="fill:#000000;fill-opacity:1"
       d="m 43.272347,196.72221 c -18.3458,-5.7484 -27.10745,-6.1271 -37.6804002,-1.6289 -6.52762997,2.7772 -9.02302,2.7949 -15.55065,0.1104 -4.2764198,-1.7587 -10.9723298,-3.3405 -14.8797998,-3.515 -5.00654,-0.2237 -7.98242,-2.0836 -10.07758,-6.2984 -1.6352,-3.2896 -12.27646,-14.8031 -23.64724,-25.5857 l -20.67413,-19.6047 4.37286,-11.4966 c 2.40508,-6.3231 8.86938,-18.0794 14.36512,-26.125 5.49574,-8.045604 10.36844,-16.542804 10.82821,-18.882804 1.60138,-8.15 7.45154,-9.2067 19.53219,-3.5281 10.80105,5.0771 11.59162,5.137 15.93328,1.2078 2.51258,-2.2738 5.9763498,-3.6512 7.6972698,-3.0608 1.72092,0.5905 6.19567003,0.2074 9.9439,-0.8513 4.80901,-1.3582 10.4425702,-0.546 19.1392602,2.7595 6.77836,2.5763 16.19462,4.6847 20.92502,4.6854 8.9455,0 16.51957,5.6769 16.51957,12.3789 0,5.304204 6.6649,10.495604 22.7927,17.753504 21.908303,9.8593 22.663003,10.9054 22.663003,31.413 0,15.6808 -0.8052,18.8998 -6.938303,27.74 -9.0476,13.0408 -18.9321,22.234 -27.3092,25.3991 -8.3515,3.1554 -8.9059,3.0985 -27.95508,-2.8703 z"
       id="path3131"
       inkscape:connector-curvature="0" />
    <path
       style="fill:#000000;fill-opacity:1"
       d="m 185.28853,498.96661 c -4.4772,-4.6995 -10.9449,-11.5051 -14.3726,-15.1236 -3.4278,-3.6185 -8.6269,-6.5791 -11.5536,-6.5791 -8.4343,0 -25.2562,-13.6859 -29.6318,-24.1078 -2.1561,-5.1355 -5.2659,-9.3482 -6.9107,-9.3615 -5.0623,-0.041 -3.4564,-20.2088 2.9683,-37.2778 7.8789,-20.9324 17.6543,-32.7687 38.1362,-46.1763 16.2996,-10.6699 17.7768,-11.1399 40.8355,-12.9925 13.1582,-1.0571 29.307,-2.1734 35.8861,-2.4806 6.57914,-0.3072 14.65354,-1.7985 17.94304,-3.3141 53.5646,-24.678 57.0678,-24.5077 69.5818,3.3828 4.6669,10.4013 8.784,15.9124 13.841,18.5275 3.959,2.0472 8.8379,6.0633 10.8421,8.9246 3.3824,4.829 3.1353,5.8937 -3.4434,14.8394 -5.6736,7.7148 -7.0872,12.0765 -7.0872,21.8668 0,7.041 -1.4887,14.1999 -3.5087,16.8736 -2.2286,2.9498 -3.0171,7.4123 -2.1612,12.2324 1.214,6.8373 0.3773,8.2303 -8.4534,14.0742 -8.3401,5.5192 -9.8008,7.7217 -9.8008,14.7777 0,6.0993 -1.8684,10.0372 -7.0658,14.8923 -7.8635,7.3456 -19.0037,9.6738 -46.289,9.6738 -13.7181,0 -18.72224,1.126 -27.27244,6.1367 -7.014,4.1105 -16.0636,6.7343 -27.4073,7.9464 l -16.9357,1.8095 -8.1404,-8.5444 0,0 z"
       id="path3133"
       inkscape:connector-curvature="0" />
    <path
       style="fill:#000000;fill-opacity:1"
       d="m 87.026427,870.23656 c -15.3705,-0.7339 -17.8024,-1.5231 -22.2959,-7.2357 -5.7321,-7.2872 -5.07481,-16.1439 2.4753,-33.353 4.8183,-10.9826 25.2244,-31.6959 31.2896,-31.7609 2.082403,-0.022 7.246903,4.2658 11.476603,9.5291 7.0578,8.7825 8.641,9.5697 19.2468,9.5697 7.5108,0 12.6318,-1.2959 14.6286,-3.7019 4.5195,-5.4456 7.0022,-0.1398 7.0466,15.0589 0.032,11.0549 -0.9813,13.68 -8.492,21.9934 -9.8112,10.8598 -27.387,21.8951 -33.7645,21.1996 -2.3973,-0.2615 -12.122303,-0.8461 -21.611103,-1.2992 l 0,0 z"
       id="path3135"
       inkscape:connector-curvature="0" />
    <path
       style="fill:#000000;fill-opacity:1"
       d="m 503.36967,897.47506 c -9.3561,-4.7932 -9.8148,-5.4899 -7.0159,-10.6556 6.2621,-11.5573 14.2733,-14.2962 39.0727,-13.3583 21.9876,0.8316 29.3906,3.1328 29.3906,9.1361 0,3.4509 -22.7375,11.9612 -26.2151,9.8119 -1.3716,-0.8477 -2.4938,-0.518 -2.4938,0.7326 0,2.1855 -17.3922,10.2393 -20.982,9.7162 -0.9602,-0.14 -6.2507,-2.5623 -11.7565,-5.3829 l 0,0 z"
       id="path3137"
       inkscape:connector-curvature="0" />
    <path
       style="fill:#000000;fill-opacity:1"
       d="m 555.92297,677.40606 c -5.5497,-1.5691 -11.2333,-3.9959 -12.6302,-5.3928 -4.662,-4.6621 3.5751,-15.0792 21.8244,-27.6001 9.7036,-6.65775 19.5727,-13.82405 21.9313,-15.92525 2.9816,-2.6562 9.1783,-3.8618 20.3355,-3.9564 19.6332,-0.1666 30.1998,-6.2875 32.5585,-18.8604 2.0547,-10.9527 8.7119,-16.3071 32.5329,-26.1664 17.8115,-7.3721 22.9199,-8.4293 41.1582,-8.518 18.2939,-0.089 20.9953,0.4424 22.2435,4.3751 1.4073,4.434 -3.0971,14.3452 -6.5194,14.3452 -0.9774,0 -7.4141,5.1138 -14.304,11.364 -30.9798,28.1034 -44.9299,42.30215 -51.0062,51.91515 -8.4573,13.3797 -21.0055,20.4552 -36.277,20.4552 -6.4658,0 -13.0521,1.2961 -14.6363,2.8803 -3.9268,3.9268 -44.4422,4.6948 -57.2112,1.0844 l 0,0 z"
       id="path3139"
       inkscape:connector-curvature="0" />
    <path
       style="fill:#000000;fill-opacity:1"
       d="m -74.726733,-305.85019 c -2.71865,-2.7186 -1.60567,-23.0069 1.78298,-32.5014 4.4038,-12.3389 10.9909,-21.8796 13.4057,-19.4168 2.95726,3.0162 6.89883,35.3986 4.42343,36.3413 -1.15176,0.4386 -2.09411,2.1168 -2.09411,3.7294 0,6.9604 -13.36575,15.9998 -17.518,11.8475 z"
       id="path3141"
       inkscape:connector-curvature="0" />
    <path
       style="fill:#000000;fill-opacity:1"
       d="m 245.98053,-148.99379 c -2.3292,-1.356 -6.3009,-1.8098 -8.8258,-1.0085 -5.3749,1.706 -8.4173,-2.8363 -10.953,-16.3528 -2.3107,-12.3173 2.2145,-20.6985 11.1757,-20.6985 4.3653,0 7.6311,-1.7609 9.40174,-5.0693 2.3388,-4.3701 4.2445,-4.8967 13.8154,-3.8179 9.5104,1.0719 12.4782,2.8308 20.6972,12.2659 5.2771,6.0581 10.9404,11.0059 12.5852,10.9952 1.6448,-0.011 2.9905,1.375 2.9905,3.0793 0,3.8009 -27.9021,18.4351 -35.1468,18.4338 -2.8829,-5e-4 -5.9071,1.0757 -6.7203,2.3915 -1.8339,2.9674 -3.6217,2.924 -9.01984,-0.2187 l 0,0 z"
       id="path3143"
       inkscape:connector-curvature="0" />
    <path
       style="fill:#000000;fill-opacity:1"
       d="m 322.10217,304.34531 c -0.8717,-0.2678 -2.5499,-0.443 -3.7294,-0.3894 -1.1794,0.054 -2.4,-0.06 -2.7123,-0.2534 -0.573,-0.3541 2.8583,-9.7414 4.1137,-11.2541 0.3311,-0.3989 1.5825,-0.9894 2.7809,-1.3121 1.1984,-0.3227 2.8861,-1.0902 3.7503,-1.7056 0.8643,-0.6155 1.9462,-1.1762 2.4042,-1.2461 0.4581,-0.07 2.6786,-0.9682 4.9345,-1.9963 4.7303,-2.1556 5.6369,-2.2622 6.9452,-0.8165 1.2687,1.4018 2.0001,6.115 1.287,8.2927 -0.5712,1.7443 -1.7207,2.3527 -7.2517,3.8382 -1.9017,0.5108 -2.5674,1.0743 -4.101,3.4717 -1.0069,1.5741 -2.2877,3.1065 -2.8461,3.4053 -1.2111,0.6482 -3.3974,0.6347 -5.5753,-0.034 l 0,0 z m 0.5896,-3.9437 c -0.3492,-0.9098 -1.9104,-1.0265 -1.9104,-0.1428 0,0.3403 0.4161,1.0798 0.9246,1.6433 0.826,0.9153 0.9433,0.9305 1.1013,0.1428 0.097,-0.4849 0.045,-1.2244 -0.1155,-1.6433 l 0,0 z"
       id="path3012"
       inkscape:connector-curvature="0" />
  </g>
</svg>
